<?xml version="1.0" encoding="utf-8"?><!-- Uploaded to: SVG Repo, www.svgrepo.com, Generator: SVG Repo Mixer Tools -->
<svg width="800px" height="800px" viewBox="0 -6 36 36" xmlns="http://www.w3.org/2000/svg">
  <g id="Lager_83" data-name="Lager 83" transform="translate(2 -4)">
    <g id="Path_90" data-name="Path 90" fill="none" stroke-miterlimit="10">
      <path d="M34,19V16C23.1,32,8.9,32-2,16v3h0V16C8.9,0,23.1,0,34,16v3Z" stroke="none"/>
      <path d="M 16 24 C 18.36101341247559 24 20.75251388549805 23.2127857208252 23.10807228088379 21.66020011901855 C 25.15364265441895 20.31193733215332 27.14412689208984 18.41371917724609 29.04653358459473 16 C 27.14412689208984 13.58628082275391 25.15364265441895 11.688063621521 23.10807228088379 10.33979988098145 C 20.75251388549805 8.787214279174805 18.36101341247559 8 16 8 C 13.6389856338501 8 11.24748611450195 8.787214279174805 8.891928672790527 10.33979988098145 C 6.846356391906738 11.688063621521 4.855872631072998 13.58628082275391 2.953466176986694 16 C 4.855872631072998 18.41371917724609 6.846356391906738 20.31193733215332 8.891928672790527 21.66020011901855 C 11.24748611450195 23.2127857208252 13.6389856338501 24 16 24 M 16 28 C 9.725000381469727 28 3.450000047683716 24 -2 16 C 3.450000047683716 8 9.725000381469727 4 16 4 C 22.27499961853027 4 28.54999923706055 8 34 16 C 28.54999923706055 24 22.27499961853027 28 16 28 Z M 34 19 L 34 16 L 34 19 Z M -2 19 L -2 16 L -2 19 Z" stroke="none" fill="#161615"/>
    </g>
    <circle id="Ellipse_9" data-name="Ellipse 9" cx="4" cy="4" r="4" transform="translate(12 12)" fill="#161615"/>
  </g>
</svg>